# xmcd
#
# Track frame offsets: 
#        150
#        15597
#        29049
#        45149
#        60988
#        84411
#        99614
#        118090
#        138295
#        155386
#        175500
#        200082
#        226915
#        243957
#        258491
#        276497
#        293773
#        311243
#
# Disc length: 4371 seconds
#
# Revision: 0
# Processed by: cddbd v1.5.2PL0 Copyright (c) Steve Scherf et al.
# Submitted via: ExactAudioCopyFreeDBPlugin 1.0
#
DISCID=f3111112
DTITLE=B.E. - Sein oder Nichtsein
DYEAR=2009
DGENRE=HipHop
TTITLE0=Sein oder Nichtsein
TTITLE1=Das ist Deutschland
TTITLE2=Flowmarkt
TTITLE3=Südwesfalen anthem pt. 2 feat. Vito Vitality
TTITLE4=Diätsong
TTITLE5=Geh weg feat. Arves
TTITLE6=Heut ist alles egal feat. 0816
TTITLE7=Sterbebett feat. Nazz'n'Tide
TTITLE8=Micathlet
TTITLE9=Heimatliebe feat. Najeeb
TTITLE10=Guten Tag USA feat. Olli Banjo
TTITLE11=Für den Moment
TTITLE12=Merk Dir den Namen feat. Louisa Lettow
TTITLE13=Sweet love
TTITLE14=Weißer Rauch feat. Spyco
TTITLE15=Im Sumpf der Medien feat. Airhan, F.Y. und Louisa Lettow
TTITLE16=Ich mach's wie
TTITLE17=Meine Klasse
EXTD=
EXTT0=
EXTT1=
EXTT2=
EXTT3=
EXTT4=
EXTT5=
EXTT6=
EXTT7=
EXTT8=
EXTT9=
EXTT10=
EXTT11=
EXTT12=
EXTT13=
EXTT14=
EXTT15=
EXTT16=
EXTT17=
PLAYORDER=
